<svg viewBox="0 0 500 620" xmlns="http://www.w3.org/2000/svg" style="width:100%;height:auto;display:block;">
  <defs>
    <filter id="s"><feDropShadow dx="2" dy="3" stdDeviation="3" flood-opacity="0.12"/></filter>
    <filter id="sg"><feGaussianBlur stdDeviation="1.5"/></filter>
    <linearGradient id="wall" x1="0" y1="0" x2="0" y2="1"><stop offset="0%" stop-color="#f7f0e6"/><stop offset="100%" stop-color="#efe6d8"/></linearGradient>
    <linearGradient id="floor" x1="0" y1="0" x2="0" y2="1"><stop offset="0%" stop-color="#d4b896"/><stop offset="100%" stop-color="#c4a882"/></linearGradient>
    <linearGradient id="sky" x1="0" y1="0" x2="0" y2="1"><stop offset="0%" stop-color="#89CFF0"/><stop offset="100%" stop-color="#b8e4ff"/></linearGradient>
    <linearGradient id="curt" x1="0" y1="0" x2="1" y2="0"><stop offset="0%" stop-color="#e0c8a8"/><stop offset="50%" stop-color="#f0dfc8"/><stop offset="100%" stop-color="#e0c8a8"/></linearGradient>
    <radialGradient id="lampLight" cx="50%" cy="30%" r="60%"><stop offset="0%" stop-color="#fff4e0" stop-opacity="0.4"/><stop offset="100%" stop-color="#fff4e0" stop-opacity="0"/></radialGradient>
  </defs>

  <!-- 墙壁 -->
  <rect x="0" y="0" width="500" height="420" fill="url(#wall)" rx="0"/>
  <!-- 墙裙 -->
  <rect x="0" y="415" width="500" height="8" fill="#dcc8b0"/>

  <!-- 窗户 -->
  <g>
    <rect x="45" y="50" width="140" height="190" rx="6" fill="url(#sky)" stroke="#b8986e" stroke-width="4"/>
    <line x1="115" y1="50" x2="115" y2="240" stroke="#b8986e" stroke-width="3"/>
    <line x1="45" y1="145" x2="185" y2="145" stroke="#b8986e" stroke-width="3"/>
    <!-- 窗外风景 -->
    <ellipse cx="95" cy="200" rx="28" ry="18" fill="#5a9e6f" opacity="0.6"/>
    <ellipse cx="140" cy="195" rx="22" ry="15" fill="#5a9e6f" opacity="0.5"/>
    <ellipse cx="110" cy="190" rx="18" ry="12" fill="#6ab07e" opacity="0.4"/>
    <circle cx="85" cy="100" r="12" fill="white" opacity="0.6"/>
    <circle cx="100" cy="95" r="8" fill="white" opacity="0.4"/>
    <!-- 窗帘左 -->
    <path d="M35 38 Q30 140 40 248 L56 248 Q50 140 52 38 Z" fill="url(#curt)" opacity="0.85"/>
    <path d="M38 38 Q34 140 43 248" fill="none" stroke="#d0b898" stroke-width="1" opacity="0.4"/>
    <!-- 窗帘右 -->
    <path d="M195 38 Q192 140 200 248 L215 248 Q210 140 213 38 Z" fill="url(#curt)" opacity="0.85"/>
    <path d="M198 38 Q195 140 203 248" fill="none" stroke="#d0b898" stroke-width="1" opacity="0.4"/>
    <!-- 窗帘杆 -->
    <rect x="32" y="34" width="188" height="7" rx="3.5" fill="#8B6914"/>
    <circle cx="36" cy="37" r="5" fill="#8B6914"/>
    <circle cx="216" cy="37" r="5" fill="#8B6914"/>
  </g>

  <!-- 挂画 -->
  <g filter="url(#s)">
    <rect x="250" y="55" width="100" height="80" rx="6" fill="#fff" stroke="#d4a574" stroke-width="3.5"/>
    <rect x="258" y="63" width="84" height="64" rx="4" fill="#fef8f0"/>
    <!-- 画中海边 -->
    <path d="M258 118 L290 90 Q295 85 300 92 L342 118 Z" fill="#f4c67a" opacity="0.7"/>
    <ellipse cx="300" cy="95" rx="12" ry="6" fill="#f4a460" opacity="0.6"/>
    <rect x="258" y="115" width="84" height="12" fill="#5a9e6f" opacity="0.4"/>
    <path d="M258 120 Q290 108 320 116 Q335 112 342 118" fill="none" stroke="#5a9e6f" stroke-width="1.5" opacity="0.5"/>
  </g>

  <!-- 时钟 -->
  <g filter="url(#s)">
    <circle cx="405" cy="85" r="28" fill="#fff" stroke="#8B6914" stroke-width="3.5"/>
    <circle cx="405" cy="85" r="24" fill="#fffaf2"/>
    <line x1="405" y1="65" x2="405" y2="69" stroke="#555" stroke-width="2"/>
    <line x1="405" y1="101" x2="405" y2="105" stroke="#555" stroke-width="2"/>
    <line x1="385" y1="85" x2="389" y2="85" stroke="#555" stroke-width="2"/>
    <line x1="421" y1="85" x2="425" y2="85" stroke="#555" stroke-width="2"/>
    <line x1="405" y1="85" x2="405" y2="68" stroke="#333" stroke-width="3" stroke-linecap="round"/>
    <line x1="405" y1="85" x2="416" y2="80" stroke="#333" stroke-width="2.5" stroke-linecap="round"/>
    <circle cx="405" cy="85" r="3.5" fill="#c0392b"/>
  </g>

  <!-- 空调 -->
  <g filter="url(#s)">
    <rect x="420" y="130" width="56" height="125" rx="7" fill="#e8e8e8" stroke="#ccc" stroke-width="2.5"/>
    <rect x="425" y="140" width="46" height="105" rx="4" fill="#f5f5f5"/>
    <rect x="432" y="150" width="32" height="10" rx="3" fill="#d0d0d0"/>
    <rect x="432" y="168" width="32" height="10" rx="3" fill="#d0d0d0"/>
    <rect x="432" y="186" width="32" height="10" rx="3" fill="#d0d0d0"/>
    <rect x="432" y="204" width="32" height="10" rx="3" fill="#d0d0d0"/>
    <rect x="445" y="222" width="6" height="18" rx="3" fill="#999"/>
    <!-- 空调指示灯 -->
    <circle cx="432" cy="237" r="2" fill="#5b9bd5"/>
    <circle cx="440" cy="237" r="2" fill="#5b9bd5"/>
  </g>

  <!-- 地板 -->
  <rect x="0" y="420" width="500" height="200" fill="url(#floor)"/>
  <!-- 地板缝 -->
  <line x1="0" y1="455" x2="500" y2="455" stroke="#b8986e" stroke-width="0.8" opacity="0.3"/>
  <line x1="0" y1="490" x2="500" y2="490" stroke="#b8986e" stroke-width="0.8" opacity="0.3"/>
  <line x1="0" y1="525" x2="500" y2="525" stroke="#b8986e" stroke-width="0.8" opacity="0.3"/>
  <line x1="0" y1="560" x2="500" y2="560" stroke="#b8986e" stroke-width="0.8" opacity="0.3"/>
  <line x1="0" y1="595" x2="500" y2="595" stroke="#b8986e" stroke-width="0.8" opacity="0.3"/>

  <!-- 地毯 -->
  <g>
    <ellipse cx="230" cy="555" rx="150" ry="50" fill="#d4a574" opacity="0.35" stroke="#c9955e" stroke-width="2"/>
    <ellipse cx="230" cy="555" rx="128" ry="42" fill="#e8c9a0" opacity="0.3"/>
    <ellipse cx="230" cy="555" rx="100" ry="32" fill="#f0dcc0" opacity="0.25"/>
    <!-- 花纹 -->
    <ellipse cx="200" cy="548" rx="16" ry="8" fill="#d4a574" opacity="0.15"/>
    <ellipse cx="260" cy="562" rx="16" ry="8" fill="#d4a574" opacity="0.15"/>
  </g>

  <!-- 电视柜 -->
  <g filter="url(#s)">
    <rect x="265" y="285" width="195" height="135" rx="6" fill="#6B4226" stroke="#5a3720" stroke-width="2.5"/>
    <!-- 上边缘装饰 -->
    <rect x="268" y="288" width="189" height="5" rx="2" fill="#7a5030"/>
    <!-- 左柜门 -->
    <rect x="275" y="325" width="82" height="85" rx="4" fill="#7a5030" stroke="#5a3720" stroke-width="1.5"/>
    <rect x="282" y="332" width="68" height="70" rx="2" fill="#8a6040"/>
    <circle cx="362" cy="368" r="4" fill="#d4a574"/>
    <!-- 右柜门 -->
    <rect x="373" y="325" width="77" height="85" rx="4" fill="#7a5030" stroke="#5a3720" stroke-width="1.5"/>
    <rect x="380" y="332" width="63" height="70" rx="2" fill="#8a6040"/>
    <circle cx="367" cy="368" r="4" fill="#d4a574"/>
    <!-- 柜腿 -->
    <rect x="270" y="416" width="8" height="10" rx="2" fill="#5a3720"/>
    <rect x="447" y="416" width="8" height="10" rx="2" fill="#5a3720"/>
  </g>

  <!-- 电视 -->
  <g filter="url(#s)">
    <!-- 屏幕 -->
    <rect x="285" y="225" width="155" height="98" rx="8" fill="#1a1a2e" stroke="#333" stroke-width="3"/>
    <rect x="290" y="230" width="145" height="88" rx="5" fill="#1e2040"/>
    <!-- TV画面 -->
    <circle cx="350" cy="268" r="12" fill="#4a7ac7" opacity="0.5"/>
    <circle cx="350" cy="268" r="6" fill="#6a9ae7" opacity="0.3"/>
    <rect x="290" y="275" width="145" height="43" fill="#181838"/>
    <!-- 字幕条 -->
    <rect x="300" y="282" width="125" height="10" rx="2" fill="#555" opacity="0.3"/>
    <rect x="305" y="296" width="115" height="10" rx="2" fill="#555" opacity="0.2"/>
    <!-- 底座 -->
    <rect x="350" y="323" width="30" height="12" rx="3" fill="#555"/>
    <rect x="338" y="335" width="54" height="6" rx="3" fill="#444"/>
  </g>

  <!-- 沙发 -->
  <g filter="url(#s)">
    <!-- 底座 -->
    <rect x="30" y="380" width="210" height="95" rx="16" fill="#c0392b" stroke="#a93226" stroke-width="2.5"/>
    <!-- 坐垫缝线 -->
    <line x1="100" y1="380" x2="100" y2="475" stroke="#a93226" stroke-width="1.5" opacity="0.4"/>
    <line x1="170" y1="380" x2="170" y2="475" stroke="#a93226" stroke-width="1.5" opacity="0.4"/>
    <!-- 靠背 -->
    <rect x="30" y="348" width="210" height="50" rx="14" fill="#e74c3c" stroke="#c0392b" stroke-width="2.5"/>
    <!-- 左扶手 -->
    <rect x="18" y="362" width="22" height="113" rx="10" fill="#c0392b" stroke="#a93226" stroke-width="2.5"/>
    <!-- 右扶手 -->
    <rect x="230" y="362" width="22" height="113" rx="10" fill="#c0392b" stroke="#a93226" stroke-width="2.5"/>
    <!-- 靠垫 -->
    <ellipse cx="73" cy="420" rx="30" ry="22" fill="#e67e22" opacity="0.55"/>
    <ellipse cx="135" cy="420" rx="30" ry="22" fill="#f39c12" opacity="0.55"/>
    <ellipse cx="197" cy="420" rx="30" ry="22" fill="#e67e22" opacity="0.55"/>
    <!-- 沙发腿 -->
    <rect x="36" y="471" width="10" height="8" rx="3" fill="#8B4513"/>
    <rect x="224" y="471" width="10" height="8" rx="3" fill="#8B4513"/>
  </g>

  <!-- 茶几 -->
  <g filter="url(#s)">
    <rect x="140" y="500" width="145" height="12" rx="4" fill="#8B6914" stroke="#7a5c10" stroke-width="2"/>
    <!-- 桌腿 -->
    <rect x="147" y="510" width="7" height="35" rx="2" fill="#7a5c10"/>
    <rect x="271" y="510" width="7" height="35" rx="2" fill="#7a5c10"/>
    <!-- 横梁 -->
    <rect x="147" y="538" width="131" height="4" rx="2" fill="#7a5c10" opacity="0.5"/>
  </g>

  <!-- 杯子 -->
  <g>
    <path d="M225 490 L225 505 Q225 510 230 510 L244 510 Q249 510 249 505 L249 490 Z" fill="#fff" stroke="#d0d0d0" stroke-width="1.5"/>
    <ellipse cx="237" cy="490" rx="12" ry="4" fill="#fafafa" stroke="#d0d0d0" stroke-width="1"/>
    <path d="M249 495 Q258 497 255 505 Q253 510 249 508" fill="none" stroke="#d0d0d0" stroke-width="1.5"/>
    <ellipse cx="237" cy="492" rx="8" ry="3" fill="#6B4226" opacity="0.5"/>
    <!-- 热气 -->
    <path d="M233 486 Q230 478 234 474" fill="none" stroke="#ddd" stroke-width="1" opacity="0.5"/>
    <path d="M240 485 Q243 477 239 472" fill="none" stroke="#ddd" stroke-width="1" opacity="0.4"/>
  </g>

  <!-- 遥控器 -->
  <g>
    <rect x="148" y="498" width="40" height="18" rx="4" fill="#444" stroke="#333" stroke-width="1.5" transform="rotate(-18 168 507)"/>
    <rect x="153" y="502" width="30" height="10" rx="2" fill="#555" transform="rotate(-18 168 507)"/>
    <circle cx="158" cy="514" r="2.2" fill="#e74c3c" transform="rotate(-18 168 507)"/>
    <circle cx="168" cy="514" r="2.2" fill="#e74c3c" transform="rotate(-18 168 507)"/>
  </g>

  <!-- 书1 -->
  <g>
    <rect x="204" y="505" width="22" height="24" rx="2" fill="#e74c3c" stroke="#c0392b" stroke-width="1.2" transform="rotate(6 215 517)"/>
    <rect x="204" y="505" width="7" height="24" rx="1" fill="#c0392b" transform="rotate(6 215 517)"/>
  </g>
  <!-- 书2 -->
  <g>
    <rect x="196" y="507" width="22" height="22" rx="2" fill="#3498db" stroke="#2980b9" stroke-width="1.2" transform="rotate(-4 207 518)"/>
    <rect x="196" y="507" width="7" height="22" rx="1" fill="#2980b9" transform="rotate(-4 207 518)"/>
  </g>

  <!-- 花瓶 -->
  <g>
    <path d="M262 484 Q255 490 257 498 L267 498 Q269 490 262 484 Z" fill="#27ae60" stroke="#1e8449" stroke-width="1.5"/>
    <!-- 花瓣 -->
    <circle cx="258" cy="480" r="4" fill="#f1c40f"/>
    <circle cx="266" cy="478" r="3.5" fill="#e74c3c"/>
    <circle cx="262" cy="477" r="3" fill="#f39c12"/>
    <line x1="262" y1="483" x2="258" y2="478" stroke="#1e8449" stroke-width="1.2"/>
    <line x1="262" y1="483" x2="266" y2="476" stroke="#1e8449" stroke-width="1.2"/>
    <line x1="262" y1="483" x2="262" y2="475" stroke="#1e8449" stroke-width="1.2"/>
    <!-- 叶子 -->
    <ellipse cx="264" cy="488" rx="7" ry="3" fill="#27ae60" opacity="0.6"/>
  </g>

  <!-- 台灯 -->
  <g filter="url(#s)">
    <!-- 灯杆 -->
    <rect x="465" y="375" width="6" height="75" rx="3" fill="#8B6914"/>
    <!-- 底座 -->
    <ellipse cx="468" cy="452" rx="18" ry="7" fill="#8B6914" stroke="#7a5c10" stroke-width="2"/>
    <!-- 灯罩 -->
    <path d="M448 375 L488 375 L478 342 L458 342 Z" fill="#f5deb3" stroke="#d4a574" stroke-width="2"/>
    <ellipse cx="468" cy="342" rx="10" ry="3.5" fill="#f5deb3" stroke="#d4a574" stroke-width="1.5"/>
    <!-- 灯光 -->
    <ellipse cx="468" cy="450" rx="30" ry="12" fill="url(#lampLight)"/>
  </g>

  <!-- 绿植 -->
  <g>
    <rect x="460" y="305" width="20" height="22" rx="3" fill="#8B6914"/>
    <path d="M470 305 Q462 290 465 280" fill="none" stroke="#27ae60" stroke-width="2.5" stroke-linecap="round"/>
    <path d="M470 305 Q475 288 472 278" fill="none" stroke="#2ecc71" stroke-width="2.5" stroke-linecap="round"/>
    <path d="M470 305 Q468 285 475 275" fill="none" stroke="#27ae60" stroke-width="2" stroke-linecap="round"/>
    <circle cx="465" cy="278" r="4" fill="#27ae60"/>
    <circle cx="472" cy="276" r="3.5" fill="#2ecc71"/>
    <circle cx="475" cy="273" r="3" fill="#27ae60"/>
  </g>

  <!-- ====== 连接线：从标签指向物品 ====== -->
  <g fill="none" stroke="#c0392b" stroke-width="1.2" opacity="0.45" stroke-dasharray="3,2">
    <line x1="18" y1="370" x2="100" y2="415"/><circle cx="100" cy="415" r="2.5" fill="#c0392b" stroke="none"/>
    <line x1="415" y1="210" x2="365" y2="255"/><circle cx="365" cy="255" r="2.5" fill="#c0392b" stroke="none"/>
    <line x1="30" y1="550" x2="190" y2="520"/><circle cx="190" cy="520" r="2.5" fill="#c0392b" stroke="none"/>
    <line x1="18" y1="260" x2="95" y2="155"/><circle cx="95" cy="155" r="2.5" fill="#c0392b" stroke="none"/>
    <line x1="215" y1="22" x2="360" y2="72"/><circle cx="360" cy="72" r="2.5" fill="#c0392b" stroke="none"/>
    <line x1="355" y1="78" x2="285" y2="105"/><circle cx="285" cy="105" r="2.5" fill="#c0392b" stroke="none"/>
    <line x1="345" y1="545" x2="440" y2="420"/><circle cx="440" cy="420" r="2.5" fill="#c0392b" stroke="none"/>
    <line x1="305" y1="115" x2="435" y2="175"/><circle cx="435" cy="175" r="2.5" fill="#c0392b" stroke="none"/>
    <line x1="215" y1="448" x2="250" y2="485"/><circle cx="250" cy="485" r="2.5" fill="#c0392b" stroke="none"/>
    <line x1="18" y1="475" x2="160" y2="505"/><circle cx="160" cy="505" r="2.5" fill="#c0392b" stroke="none"/>
    <line x1="275" y1="525" x2="238" y2="515"/><circle cx="238" cy="515" r="2.5" fill="#c0392b" stroke="none"/>
    <line x1="275" y1="460" x2="265" y2="482"/><circle cx="265" cy="482" r="2.5" fill="#c0392b" stroke="none"/>
    <line x1="225" y1="590" x2="250" y2="555"/><circle cx="250" cy="555" r="2.5" fill="#c0392b" stroke="none"/>
    <line x1="18" y1="15" x2="55" y2="95"/><circle cx="55" cy="95" r="2.5" fill="#c0392b" stroke="none"/>
    <line x1="430" y1="15" x2="200" y2="95"/><circle cx="200" cy="95" r="2.5" fill="#c0392b" stroke="none"/>
  </g>
</svg>
